<?xml version="1.0" encoding="UTF-8" standalone="no"?>
<!DOCTYPE svg PUBLIC "-//W3C//DTD SVG 1.1//EN" "http://www.w3.org/Graphics/SVG/1.1/DTD/svg11.dtd">
<svg width="100%" height="100%" viewBox="0 0 345 116" version="1.1" xmlns="http://www.w3.org/2000/svg" xmlns:xlink="http://www.w3.org/1999/xlink" xml:space="preserve" xmlns:serif="http://www.serif.com/" style="fill-rule:evenodd;clip-rule:evenodd;stroke-linejoin:round;stroke-miterlimit:2;">
    <g transform="matrix(1,0,0,1,-38,-38)">
        <g transform="matrix(0.668429,0,0,0.668429,210.454773,95.819139)">
            <g transform="matrix(1,0,0,1,-258,-86.5)">
                <g transform="matrix(1,0,0,1,-52,0)">
                    <path d="M74.961,77.5C74.976,76.852 75.04,76.876 75.029,64.5C75.025,59.689 74.293,51.152 78.669,43.594C82.537,36.913 86.789,34.217 88.254,33.143C96.5,27.096 115.645,23.024 129.381,39.596C134.68,45.989 136.699,55.129 135.494,62.499C133.457,74.954 128.239,75.266 129.484,78.508C129.71,79.096 135.118,84.973 135.651,94.488C136.384,107.566 130.499,114.2 128.063,117.109C127.813,117.408 122.901,122.687 116.376,125.18C101.285,130.946 83.083,123.972 76.781,107.398C74.649,101.79 74.961,98.486 74.961,77.5ZM97.049,92.501C96.992,94.829 96.364,100.068 99.842,103.131C104.616,107.334 113.043,104.586 113.715,97.516C113.846,96.129 113.238,88.735 104.498,88.631C102.891,88.611 100.333,89.28 100.1,86.544C100.081,86.322 100.078,68.781 100.108,68.449C100.52,63.948 106.477,69.099 111.6,63.591C117.685,57.049 109.512,45.695 100.49,51.486C97.21,53.592 97.075,57.859 97.055,58.483C96.91,63.049 97.037,89.779 97.049,92.501Z" style="fill:white;"/>
                    <path d="M257.499,166.049C252.881,165.84 252.833,166.104 248.405,164.819C242.486,163.102 236.74,158.548 236.524,157.493C236.215,155.985 237.668,155.081 244.38,148.38C250.123,142.647 250.358,141.399 253.279,142.938C260.553,146.773 268.269,139.122 264.401,131.558C261.697,126.27 254.15,127.235 252.555,127.017C243.559,125.792 237.629,120.362 236.585,119.406C222.617,106.617 225.418,87.748 232.762,78.706C234.144,77.005 243.855,63.808 263.545,67.288C273.179,68.991 279.417,76.346 280.44,77.552C286.986,85.271 287.618,91.671 287.169,100.444C286.657,110.447 280.915,114.106 281.165,116.548C281.305,117.912 288.262,125.116 287.493,137.5C286.562,152.467 276.938,159.54 270.711,162.908C265.111,165.937 258.884,165.976 257.499,166.049ZM248.886,98.437C249.731,101.196 249.475,101.427 251.661,103.319C257.286,108.187 266.599,103.338 265.355,95.523C264.209,88.325 254.415,85.678 249.878,92.729C249.665,93.06 249.055,94.481 248.874,95.566C248.687,96.691 248.813,96.687 248.886,98.437Z" style="fill:white;"/>
                    <path d="M199.049,132.538C199.046,134.083 199.533,135.614 196.502,135.658C195.047,135.679 188.397,135.609 180.5,135.647C177.636,135.661 177.487,135.318 176.797,133.397C173.745,124.909 165.74,128.085 164.262,126.82C163.404,126.086 163.551,125.883 163.553,114.5C163.554,107.092 163.146,105.351 165.462,105.186C167.127,105.067 171.703,106.084 175.192,102.24C179.072,97.964 176.829,89.311 169.492,88.574C166.322,88.255 161.054,90.058 160.487,96.499C160.18,99.993 160.595,125.32 160.139,126.313C159.647,127.382 159.268,127.214 144.501,127.215C144.108,127.215 139.824,127.215 139.594,127.125C138.034,126.52 138.248,126.171 138.231,124.505C138.205,121.945 137.955,97.311 138.618,92.517C140.699,77.468 153.022,68.449 163.564,66.877C186.08,63.521 198.388,82.13 198.9,93.466C199.233,100.825 199.03,106.561 193.918,113.79C191.624,117.034 193.041,117.314 194.01,118.831C198.444,125.772 198.653,130.062 199.049,132.538Z" style="fill:white;"/>
                    <path d="M542.09,123.5C542.002,124.148 542.166,124.814 542.078,125.462C541.797,127.527 539.811,127.229 539.498,127.23C538.139,127.233 523.907,127.271 522.518,127.208C520.38,127.11 520.285,125.938 520.272,124.504C520.166,112.262 520.595,96.832 519.85,94.384C517.941,88.119 508.78,86.157 504.67,92.608C502.109,96.63 503.844,104.825 511.514,105.257C513.167,105.35 516.288,104.898 516.833,106.325C517.137,107.124 517.079,107.143 517.085,123.499C517.085,126.267 517.278,127.194 514.498,127.218C509.501,127.261 497.577,128.101 487.258,114.676C479.953,105.173 479.353,88.912 487.606,78.583C489.709,75.951 496.675,66.719 511.499,66.444C517.499,66.332 525.742,68.207 532.394,74.612C539.607,81.558 540.804,87.858 541.229,89.568C542.179,93.396 542.093,93.445 542.09,123.5Z" style="fill:white;"/>
                    <path d="M350.03,101.502C349.746,118.749 350.449,125.693 349.617,126.592C348.947,127.315 348.77,127.203 333.5,127.203C331.206,127.204 328.568,127.658 328.229,125.543C328.137,124.97 328.31,96.914 328.078,95.566C326.626,87.106 314.34,85.943 311.772,94.578C310.63,98.419 312.592,104.941 319.516,105.248C322.119,105.364 324.804,104.545 324.961,107.444C324.972,107.66 325.078,125.156 325.017,125.458C324.662,127.218 324.284,127.185 322.495,127.207C314.733,127.305 307.541,126.914 299.056,118.963C289.971,110.451 289.414,101.676 289.842,93.557C290.189,86.994 292.808,80.04 300.431,73.418C312.919,62.57 336.316,63.257 346.869,83.315C350.288,89.813 349.89,95.166 350.03,101.502Z" style="fill:white;"/>
                    <path d="M353.968,91.57C354.364,89.766 354.988,86.082 357.658,81.593C369.602,61.516 397.472,61.712 409.619,80.42C415.002,88.708 414.487,92.544 414.487,116.5C414.487,125.707 414.919,127.034 412.476,127.214C412.025,127.247 396.861,127.244 395.503,127.243C394.906,127.243 392.763,127.503 392.456,125.506C392.381,125.02 392.486,100.814 392.399,97.502C392.093,85.824 378.202,86.509 376.138,94.397C375.454,97.012 375.876,111.929 375.773,124.504C375.759,126.184 375.991,126.553 374.416,127.143C374.299,127.187 374.307,127.221 360.5,127.222C355.358,127.222 353.652,127.892 353.621,124.498C353.387,98.737 353.755,94.195 353.968,91.57Z" style="fill:white;"/>
                    <path d="M452.955,70.499C453.055,74.925 453.024,86.405 453.015,86.469C452.429,90.763 448.415,86.164 442.459,90.45C437.413,94.082 438.491,104.775 447.518,105.253C450.207,105.396 452.721,104.485 452.95,107.445C453.111,109.535 452.811,116.479 453.02,124.495C453.106,127.775 451.764,127.239 448.5,127.232C447.179,127.229 431.149,128.362 421.202,111.659C416.935,104.495 417.4,98.25 417.395,78.5C417.39,59.478 417.335,59.384 417.814,58.749C418.407,57.961 418.634,58.102 435.5,58.075C438.285,58.07 438.946,57.761 439.748,60.416C442.147,68.358 450.81,65.726 452.285,66.782C453.214,67.448 452.779,67.699 452.955,70.499Z" style="fill:white;"/>
                    <path d="M463.501,127.196C460.756,127.223 458.233,127.287 457.65,127.091C456.782,126.798 456.63,125.637 456.611,125.486C456.352,123.504 456.569,123.502 456.577,100.5C456.583,82.302 456.566,69.952 456.638,69.524C456.969,67.557 459.44,67.868 463.506,67.92C475.463,68.073 475.448,67.804 476.483,67.894C477.805,68.01 478.165,68.532 478.252,68.659C478.632,69.211 478.631,72.192 478.631,72.5C478.631,76.66 478.625,123.153 478.614,124.502C478.612,124.733 478.595,126.792 477.387,127.118C476.315,127.408 476.294,127.286 463.501,127.196Z" style="fill:white;"/>
                    <path d="M223.747,115.5C223.747,125.832 223.953,126.472 222.749,126.933C221.837,127.282 221.482,127.225 205.499,127.218C202.664,127.216 201.772,127.333 201.749,124.498C201.724,121.459 201.861,121.463 201.73,86.5C201.725,85.143 201.668,70.099 201.745,69.538C201.771,69.345 201.937,68.121 203.537,67.901C203.638,67.887 206.805,67.91 219.501,67.896C219.733,67.896 222.214,67.893 222.393,67.959C223.924,68.524 223.721,68.87 223.742,70.491C223.789,74.091 223.743,74.071 223.747,115.5Z" style="fill:white;"/>
                    <g transform="matrix(1,0,0,1,-4.230284,1.285452)">
                        <path d="M180.887,38.519C180.573,36.359 180.896,36.166 179.397,34.598C177.863,32.993 175.979,33.03 175.485,33.041C169.48,33.168 170.379,40.697 170.267,42.507C169.897,48.489 170.19,50.546 170.1,55.448C170.06,57.609 168.758,57.436 167.5,57.435C157.59,57.429 157.592,57.318 157.564,57.31C155.877,56.849 156.306,53.717 156.308,52.5C156.331,37.974 155.782,33.862 158.844,28.699C165.511,17.454 179.615,16.333 187.716,23.234C188.442,23.853 192.004,26.803 193.711,31.42C194.134,32.563 195.779,41.481 192.915,46.72C191.308,49.659 190.342,49.891 192.086,52.751C193.806,55.572 195.701,61.149 194.383,62.377C193.807,62.914 192.102,62.812 186.501,62.811C182.315,62.811 181.705,63.225 180.403,60.553C178.226,56.088 173.435,58.545 172.694,56.387C172.437,55.639 172.549,55.615 172.571,46.501C172.579,43.267 173.627,43.577 175.495,43.434C175.806,43.41 177.985,43.243 179.171,42.141C180.879,40.555 180.845,38.688 180.887,38.519Z" style="fill:white;"/>
                    </g>
                    <g transform="matrix(1,0,0,1,-4.230284,1.285452)">
                        <path d="M330.902,38.503C330.883,38.83 331.312,47.875 322.315,54.23C314.702,59.606 301.13,58.766 294.637,47.42C292.544,43.763 290.06,32.467 297.795,24.794C303.03,19.602 307.84,19.09 311.5,18.962C315.227,18.831 323.123,20.122 328.322,28.604C331.18,33.268 330.895,38.203 330.902,38.503ZM316.868,38.513C316.829,36.502 315.86,35.098 315.378,34.616C315.141,34.378 313.817,32.992 311.491,33.034C305.905,33.134 304.355,40.975 309.655,43.081C311.244,43.712 313.748,43.326 315.158,42.133C316.282,41.182 316.885,39.39 316.868,38.513Z" style="fill:white;"/>
                    </g>
                    <g transform="matrix(1,0,0,1,-4.230284,1.285452)">
                        <path d="M260.967,36.501C261.02,35.142 261.134,25.924 261.134,19.503C261.134,16.29 260.813,14.928 264.022,14.908C264.74,14.904 271.508,14.858 272.491,14.907C275.008,15.031 274.779,16.363 274.779,19.492C274.779,24.72 274.657,29.54 274.657,34.336C274.657,39.635 274.336,44.577 272.085,48.24C266.56,57.227 254.526,59.952 246.222,54.996C235.891,48.831 236.649,39.762 236.799,35.555C237.038,28.836 243.918,19.499 254.478,19.114C257.527,19.003 258.754,18.437 258.81,21.485C258.823,22.208 258.919,27.414 258.796,30.519C258.667,33.786 256.883,32.573 254.41,33.151C251.803,33.76 250.241,36.431 250.377,38.506C250.742,44.075 258.388,45.194 260.418,40.463C261.221,38.592 260.916,38.528 260.967,36.501Z" style="fill:white;"/>
                    </g>
                    <g transform="matrix(1,0,0,1,-4.230284,1.285452)">
                        <path d="M210.149,38.52C210.231,38.858 210.213,39.215 210.294,39.553C211.154,43.119 214.974,43.495 215.496,43.546C217.323,43.726 218.494,43.25 218.524,46.499C218.616,56.291 218.761,56.438 218.151,57.019C217.598,57.545 209.767,58.473 203.58,53.401C197.446,48.374 196.917,43.43 196.808,42.402C195.957,34.451 197.571,30.661 197.97,29.724C198.539,28.387 202.189,23.323 203.496,23.467C204.787,23.609 206.166,27.928 212.484,27.321C216.281,26.956 219.508,23.468 222.596,21.718C223.429,21.246 224.491,20.72 227.594,23.386C235.247,29.963 234.071,36.44 234.383,42.498C234.591,46.524 234.747,55.588 234.344,56.429C233.899,57.36 232.663,57.43 232.495,57.44C231.839,57.477 224.22,57.438 223.501,57.434C220.639,57.419 221.033,56.35 220.973,53.501C220.889,49.425 221.276,37.872 220.044,35.748C217.466,31.307 210.81,32.746 210.182,37.451C210.135,37.804 210.196,38.167 210.149,38.52Z" style="fill:white;"/>
                    </g>
                    <g transform="matrix(1,0,0,1,-4.230284,1.285452)">
                        <path d="M287.499,19.853C288.997,19.967 289.363,19.714 289.952,20.263C290.422,20.701 290.443,20.929 290.344,31.504C290.284,38.007 290.323,39.824 290.31,44.498C290.306,46.167 290.406,55.198 290.378,55.487C290.14,58.023 287.317,57.431 285.5,57.426C279.564,57.41 277.244,57.746 276.66,56.432C275.994,54.93 276.854,44.418 276.854,34.5C276.855,27.801 276.909,21.15 276.909,20.923C276.909,20.268 277.567,19.993 277.628,19.976C278.125,19.841 279.195,19.866 287.499,19.853Z" style="fill:white;"/>
                    </g>
                    <g transform="matrix(1,0,0,1,-4.230284,1.285452)">
                        <path d="M205.045,19.529C205.222,16.181 205.06,15.483 209.357,12.299C216.414,7.071 217.695,7.025 218.543,6.995C226.248,6.72 228.161,15.439 222.182,19.158C215.112,23.556 213.554,25.885 209.438,24.713C206.782,23.957 205.335,21.124 205.185,20.573C205.093,20.234 205.137,19.868 205.045,19.529Z" style="fill:white;"/>
                    </g>
                    <path d="M497.009,25.595C497.329,28.353 498.673,34.328 494.018,43.252C490.28,50.418 479.376,58.271 478.7,58.775C476.995,60.048 470.715,64.273 468.64,64.866C466.613,65.446 464.811,64.787 457.252,59.869C456.673,59.493 454.685,58.2 450.399,54.622C447.828,52.477 443.786,48.274 442.512,46.492C438.302,40.609 435.13,32.446 438.515,23.506C441.729,15.018 449.287,12.97 450.56,12.757C452.445,12.442 454.462,12.324 457.42,12.938C462.653,14.025 465.918,17.428 467.489,17.345C468.476,17.293 471.477,14.793 475.489,13.467C485.959,10.007 492.409,17.472 493.382,18.599C495.997,21.625 495.763,21.796 497.009,25.595Z" style="fill:rgb(226,0,23);"/>
                </g>
            </g>
        </g>
    </g>
</svg>
